<svg width="19" height="20" viewBox="0 0 19 20" fill="none" xmlns="http://www.w3.org/2000/svg">
<path d="M17.71 17.2871L14.31 13.8971C15.407 12.4995 16.0022 10.7737 16 8.99707C16 7.41482 15.5308 5.8681 14.6518 4.55251C13.7727 3.23692 12.5233 2.21154 11.0615 1.60604C9.59966 1.00054 7.99113 0.84211 6.43928 1.15079C4.88743 1.45947 3.46197 2.2214 2.34315 3.34022C1.22433 4.45904 0.462403 5.8845 0.153721 7.43635C-0.15496 8.9882 0.00346625 10.5967 0.608967 12.0585C1.21447 13.5204 2.23985 14.7698 3.55544 15.6488C4.87103 16.5279 6.41775 16.9971 8 16.9971C9.77666 16.9993 11.5025 16.4041 12.9 15.3071L16.29 18.7071C16.383 18.8008 16.4936 18.8752 16.6154 18.926C16.7373 18.9767 16.868 19.0029 17 19.0029C17.132 19.0029 17.2627 18.9767 17.3846 18.926C17.5064 18.8752 17.617 18.8008 17.71 18.7071C17.8037 18.6141 17.8781 18.5035 17.9289 18.3817C17.9797 18.2598 18.0058 18.1291 18.0058 17.9971C18.0058 17.8651 17.9797 17.7344 17.9289 17.6125C17.8781 17.4906 17.8037 17.38 17.71 17.2871ZM2 8.99707C2 7.81039 2.3519 6.65035 3.01119 5.66365C3.67047 4.67696 4.60755 3.90792 5.7039 3.4538C6.80026 2.99967 8.00666 2.88085 9.17055 3.11236C10.3344 3.34387 11.4035 3.91532 12.2426 4.75443C13.0818 5.59355 13.6532 6.66265 13.8847 7.82653C14.1162 8.99042 13.9974 10.1968 13.5433 11.2932C13.0892 12.3895 12.3201 13.3266 11.3334 13.9859C10.3467 14.6452 9.18669 14.9971 8 14.9971C6.4087 14.9971 4.88258 14.3649 3.75736 13.2397C2.63214 12.1145 2 10.5884 2 8.99707Z" fill="white"/>
</svg>
