<svg width="13" height="12" viewBox="0 0 13 12" fill="none" xmlns="http://www.w3.org/2000/svg">
<path fill-rule="evenodd" clip-rule="evenodd" d="M2.75751 1.03727C2.61002 1.08947 2.50808 1.16438 2.42468 1.28183C2.284 1.47999 2.28995 1.34095 2.28995 4.42084V7.23216L1.64498 8.6502L1 10.0683L1.00057 10.2546C1.00103 10.3985 1.01324 10.4685 1.05429 10.5621C1.12139 10.7152 1.30662 10.8961 1.45669 10.9551C1.56815 10.999 1.69185 11 6.83333 11C11.9748 11 12.0985 10.999 12.21 10.9551C12.36 10.8961 12.5453 10.7152 12.6124 10.5621C12.6534 10.4685 12.6656 10.3985 12.6661 10.2546L12.6667 10.0683L12.0274 8.67065L11.3881 7.27304L11.3767 4.39629L11.3653 1.51954L11.3016 1.38719C11.2294 1.23725 11.1188 1.12784 10.9669 1.05614L10.863 1.00708L6.86758 1.00189C3.12082 0.997021 2.86502 0.99921 2.75751 1.03727ZM10.6918 4.32641V6.95858H6.83333H2.97489V4.32641V1.69424H6.83333H10.6918V4.32641ZM11.4057 8.95565C11.7293 9.66945 11.9891 10.2668 11.9829 10.2832C11.974 10.3068 11.643 10.3128 10.3512 10.3128H8.73071L8.62852 9.98091C8.57231 9.79836 8.48308 9.50747 8.43025 9.33451C8.37742 9.16156 8.31518 8.99252 8.29196 8.95886C8.19657 8.82059 8.21212 8.82206 6.83333 8.82206C5.43911 8.82206 5.46007 8.81991 5.36991 8.97118C5.34651 9.01043 5.29048 9.16326 5.24537 9.3108C5.20027 9.45837 5.11231 9.74418 5.04989 9.94597L4.93639 10.3128H3.31566C2.01753 10.3128 1.69267 10.3069 1.68368 10.2829C1.67749 10.2665 1.93721 9.66917 2.26087 8.95555L2.84931 7.65808L6.83333 7.65794L10.8174 7.65782L11.4057 8.95565ZM7.88258 9.89041C7.94591 10.0937 7.99772 10.2719 7.99772 10.2864C7.99772 10.3058 7.68612 10.3128 6.83087 10.3128H5.664L5.67931 10.2488C5.68776 10.2136 5.74078 10.0353 5.79717 9.85279L5.89966 9.52086H6.83356H7.76744L7.88258 9.89041Z" fill="#303030" stroke="#303030" stroke-width="0.5"/>
</svg>
